<svg xmlns="http://www.w3.org/2000/svg" version="1.1" xmlns:xlink="http://www.w3.org/1999/xlink" xmlns:svgjs="http://svgjs.com/svgjs" width="512" height="512" x="0" y="0" viewBox="0 0 512.259 512.259" style="enable-background:new 0 0 512 512" xml:space="preserve" class=""><g><path fill="#9747ff" d="M70.75 273.785c-29.973-.055-56.715 18.82-66.707 47.078-9.992 28.262-1.055 59.75 22.289 78.547 23.348 18.8 56.016 20.813 81.496 5.024-15.793 25.476-13.777 58.148 5.02 81.492 18.8 23.347 50.289 32.281 78.547 22.289 28.257-9.988 47.132-36.73 47.078-66.707V309.094c0-19.5-15.809-35.309-35.309-35.309zm0 0" data-original="#23b972" class=""></path><path fill="#9747ff" d="M35.441 353.234a8.829 8.829 0 0 1-8.828-8.828c0-24.379 19.762-44.136 44.137-44.136 4.875 0 8.828 3.949 8.828 8.824s-3.953 8.828-8.828 8.828c-14.625 0-26.48 11.86-26.48 26.484a8.829 8.829 0 0 1-8.829 8.828zM203.164 317.922h-88.277c-4.875 0-8.825-3.953-8.825-8.828s3.95-8.824 8.825-8.824h88.277c4.875 0 8.828 3.949 8.828 8.824s-3.953 8.828-8.828 8.828zm0 0" data-original="#81cb97" class=""></path><path fill="#9747ff" d="M441.508 273.785c29.976-.055 56.719 18.82 66.707 47.078 9.992 28.262 1.058 59.75-22.29 78.547-23.343 18.8-56.015 20.813-81.491 5.024 15.789 25.476 13.777 58.148-5.024 81.492-18.797 23.347-50.285 32.281-78.547 22.289-28.258-9.988-47.133-36.73-47.078-66.707V309.094c0-19.5 15.809-35.309 35.309-35.309zm0 0" data-original="#5dc382" class=""></path><path fill="#9747ff" d="M309.094 362.063c-4.875 0-8.824-3.954-8.824-8.829v-35.312c0-9.75 7.902-17.652 17.652-17.652h35.312c4.875 0 8.829 3.949 8.829 8.824s-3.954 8.828-8.829 8.828h-35.312v35.312a8.829 8.829 0 0 1-8.828 8.829zm0 0" data-original="#81cb97" class=""></path><path fill="#9747ff" d="M70.75 238.473c-29.973.054-56.715-18.82-66.707-47.078-9.992-28.258-1.055-59.747 22.289-78.547 23.348-18.797 56.016-20.813 81.496-5.02-15.793-25.48-13.777-58.148 5.02-81.496 18.8-23.344 50.289-32.281 78.547-22.289 28.257 9.992 47.132 36.734 47.078 66.707v132.414c0 19.5-15.809 35.309-35.309 35.309zm0 0" data-original="#5dc382" class=""></path><path fill="#9747ff" d="M36.137 169.469c-.551 0-1.102-.055-1.64-.16-4.763-.922-7.892-5.512-7-10.282a44.04 44.04 0 0 1 66.433-28.656 8.83 8.83 0 0 1 2.73 12.074 8.83 8.83 0 0 1-12.023 2.934 26.38 26.38 0 0 0-39.797 16.906 8.822 8.822 0 0 1-8.703 7.184zM133.496 71.227a8.78 8.78 0 0 1-1.941-.22 8.84 8.84 0 0 1-5.54-3.91 8.818 8.818 0 0 1-1.132-6.683 44.304 44.304 0 0 1 34.144-32.918 47.147 47.147 0 0 1 8.828-.883c4.875 0 8.825 3.953 8.825 8.828s-3.95 8.829-8.825 8.829a30.744 30.744 0 0 0-5.582.535 26.553 26.553 0 0 0-20.168 19.527 8.833 8.833 0 0 1-8.609 6.895zm0 0" data-original="#81cb97" class=""></path><path fill="#9747ff" d="M441.508 238.473c29.976.054 56.719-18.82 66.707-47.078 9.992-28.258 1.058-59.747-22.29-78.547-23.343-18.797-56.015-20.813-81.491-5.02 15.789-25.48 13.777-58.148-5.024-81.496-18.797-23.344-50.285-32.281-78.547-22.289-28.258 9.992-47.133 36.734-47.078 66.707v132.414c0 19.5 15.809 35.309 35.309 35.309zm0 0" data-original="#23b972" class=""></path><g fill="#81cb97"><path d="M309.094 141.371c-4.875 0-8.824-3.953-8.824-8.828v-26.48c0-4.88 3.949-8.829 8.824-8.829s8.828 3.95 8.828 8.829v26.48a8.829 8.829 0 0 1-8.828 8.828zM309.094 79.578c-4.875 0-8.824-3.953-8.824-8.828.027-24.363 19.77-44.11 44.136-44.137a8.829 8.829 0 0 1 0 17.657c-14.625 0-26.484 11.855-26.484 26.48a8.829 8.829 0 0 1-8.828 8.828zm0 0" fill="#9747ff" data-original="#81cb97" class=""></path></g></g></svg>